STARTFONT 2.1
COMMENT This font was taken from the dosemu project, resized by 
COMMENT bdfresize and finally corrected and sharpened by hand.
COMMENT 
COMMENT This font gives you the maximum window size possible 
COMMENT inside of a 1024x768 pix display without breaking the
COMMENT screen borders. 
COMMENT 
COMMENT Having a closer look to the font, you will find that
COMMENT narrow characters are not always placed in the same
COMMENT positions of their cells. You will also see that some
COMMENT characters like "o" are made less wide. These are not
COMMENT mistakes. It was all done for the purpose of improving
COMMENT the appearance of entire words and sentences.
COMMENT 
COMMENT You may change this if you like, but should mention it
COMMENT here (inside of the font comments).
COMMENT 
COMMENT Have a look to the other fonts of this series as well.
COMMENT Written in December 2002 by Martin Reuber, OFD Kiel,
COMMENT German Fiscal Administration.
COMMENT 
COMMENT Update 002 in May 2003:
COMMENT The style of the characters b and d was changed.
COMMENT 
COMMENT Update 003 in January 2004:
COMMENT Small corrections in font name, properties and comments.
FONT -dosemu-vga-Medium-R-Normal--30-300-75-75-C-120-IBM-CP437
SIZE 30 75 75
FONTBOUNDINGBOX 12 30 0 -8
STARTPROPERTIES 22
POINT_SIZE 300
RESOLUTION_X 75
RESOLUTION_Y 75
QUAD_WIDTH 8
DEFAULT_CHAR 0
FONT_ASCENT 22
FONT_DESCENT 8
_ORIGINAL_FONT_NAME "vga"
_XMBDFED_INFO "Edited with xmbdfed 4.5."
FOUNDRY "dosemu"
FAMILY_NAME "vga"
WEIGHT_NAME "Medium"
SLANT "R"
SETWIDTH_NAME "Normal"
ADD_STYLE_NAME "1024x768pix_screen_max_size"
PIXEL_SIZE 30
SPACING "C"
AVERAGE_WIDTH 120
CHARSET_REGISTRY "IBM"
CHARSET_ENCODING "CP437"
RESOLUTION 100
WEIGHT 10
ENDPROPERTIES
CHARS 256
STARTCHAR 000
ENCODING 0
SWIDTH 384 0
DWIDTH 12 0
BBX 0 0 0 0
BITMAP
ENDCHAR
STARTCHAR 001
ENCODING 1
SWIDTH 384 0
DWIDTH 12 0
BBX 12 19 0 0
BITMAP
7FE0
FFF0
C030
D9B0
D9B0
D9B0
C030
C030
D9B0
D9B0
D9B0
D9B0
D9B0
DFB0
CF30
C030
C030
FFF0
7FE0
ENDCHAR
STARTCHAR 002
ENCODING 2
SWIDTH 384 0
DWIDTH 12 0
BBX 12 19 0 0
BITMAP
7FE0
FFF0
FFF0
E670
E670
FFF0
FFF0
FFF0
FFF0
FFF0
EF70
EF70
EF70
F0F0
FFF0
FFF0
FFF0
FFF0
7FE0
ENDCHAR
STARTCHAR 003
ENCODING 3
SWIDTH 384 0
DWIDTH 12 0
BBX 11 12 0 3
BITMAP
71C0
FBE0
FFE0
FFE0
FFE0
FFE0
FFE0
7FC0
3F80
1F00
0E00
0400
ENDCHAR
STARTCHAR 004
ENCODING 4
SWIDTH 384 0
DWIDTH 12 0
BBX 10 12 0 3
BITMAP
0C00
1E00
3F00
7F80
FFC0
FFC0
FFC0
FFC0
7F80
3F00
1E00
0C00
ENDCHAR
STARTCHAR 005
ENCODING 5
SWIDTH 384 0
DWIDTH 12 0
BBX 10 16 0 0
BITMAP
0C00
1E00
1E00
7F80
F3C0
F3C0
C0C0
C0C0
F3C0
F3C0
7F80
0C00
0C00
0C00
1E00
1E00
ENDCHAR
STARTCHAR 006
ENCODING 6
SWIDTH 384 0
DWIDTH 12 0
BBX 10 16 0 0
BITMAP
0C00
0C00
1E00
3F00
7F80
FFC0
FFC0
FFC0
FFC0
3F00
3F00
0C00
0C00
0C00
3F00
3F00
ENDCHAR
STARTCHAR 007
ENCODING 7
SWIDTH 384 0
DWIDTH 12 0
BBX 6 7 3 4
BITMAP
30
78
FC
FC
FC
78
30
ENDCHAR
STARTCHAR 008
ENCODING 8
SWIDTH 384 0
DWIDTH 12 0
BBX 12 29 0 -7
BITMAP
FFF0
FFF0
FFF0
FFF0
FFF0
FFF0
FFF0
FFF0
FFF0
FFF0
FFF0
FFF0
F9F0
F9F0
E070
E070
F9F0
F9F0
FFF0
FFF0
FFF0
FFF0
FFF0
FFF0
FFF0
FFF0
FFF0
FFF0
FFF0
ENDCHAR
STARTCHAR 009
ENCODING 9
SWIDTH 384 0
DWIDTH 12 0
BBX 9 12 1 3
BITMAP
7F00
FF80
FF80
E380
E380
C180
C180
E380
E380
FF80
FF80
7F00
ENDCHAR
STARTCHAR 010
ENCODING 10
SWIDTH 384 0
DWIDTH 12 0
BBX 12 30 0 -8
BITMAP
FFF0
FFF0
FFF0
FFF0
FFF0
FFF0
FFF0
FFF0
FFF0
FFF0
EF70
EF70
DFB0
DFB0
DFB0
DFB0
DFB0
EF70
EF70
FFF0
FFF0
FFF0
FFF0
FFF0
FFF0
FFF0
FFF0
FFF0
FFF0
FFF0
ENDCHAR
STARTCHAR 011
ENCODING 11
SWIDTH 384 0
DWIDTH 12 0
BBX 10 18 0 -1
BITMAP
1FC0
0FC0
01C0
03C0
06C0
0CC0
7E40
FF00
C300
C300
C300
C300
C300
C300
C300
C300
FF00
7E00
ENDCHAR
STARTCHAR 012
ENCODING 12
SWIDTH 384 0
DWIDTH 12 0
BBX 8 19 2 0
BITMAP
7E
FF
C3
C3
C3
C3
C3
C3
C3
FF
7E
18
18
18
FF
FF
18
18
18
ENDCHAR
STARTCHAR 013
ENCODING 13
SWIDTH 384 0
DWIDTH 12 0
BBX 10 19 0 0
BITMAP
0780
0FC0
0CC0
0CC0
0CC0
0FC0
0F80
0C00
0C00
0C00
0C00
0C00
0C00
0C00
0C00
7C00
FC00
F800
F000
ENDCHAR
STARTCHAR 014
ENCODING 14
SWIDTH 384 0
DWIDTH 12 0
BBX 10 21 0 -2
BITMAP
3F80
7FC0
60C0
60C0
60C0
7FC0
7FC0
60C0
60C0
60C0
60C0
60C0
60C0
60C0
63C0
77C0
F7C0
F7C0
F380
E000
C000
ENDCHAR
STARTCHAR 015
ENCODING 15
SWIDTH 384 0
DWIDTH 12 0
BBX 11 16 0 0
BITMAP
0E00
0E00
EEE0
E4E0
FFE0
1F00
FBE0
F1E0
FBE0
1F00
FFE0
EEE0
E4E0
0E00
0E00
0E00
ENDCHAR
STARTCHAR 016
ENCODING 16
SWIDTH 384 0
DWIDTH 12 0
BBX 10 19 0 0
BITMAP
8000
C000
E000
F000
F800
FC00
FE00
FF00
FF80
FFC0
FF80
FF00
FE00
FC00
F800
F000
E000
C000
8000
ENDCHAR
STARTCHAR 017
ENCODING 17
SWIDTH 384 0
DWIDTH 12 0
BBX 10 19 0 0
BITMAP
0040
00C0
01C0
03C0
07C0
0FC0
1FC0
3FC0
7FC0
FFC0
7FC0
3FC0
1FC0
0FC0
07C0
03C0
01C0
00C0
0040
ENDCHAR
STARTCHAR 018
ENCODING 18
SWIDTH 384 0
DWIDTH 12 0
BBX 8 17 2 2
BITMAP
18
3C
7E
FF
18
18
18
18
18
18
18
18
18
FF
7E
3C
18
ENDCHAR
STARTCHAR 019
ENCODING 19
SWIDTH 384 0
DWIDTH 12 0
BBX 7 19 2 0
BITMAP
C6
C6
C6
C6
C6
C6
C6
C6
C6
C6
C6
C6
C6
C6
00
00
C6
C6
C6
ENDCHAR
STARTCHAR 020
ENCODING 20
SWIDTH 384 0
DWIDTH 12 0
BBX 10 19 0 0
BITMAP
7FC0
FFC0
C6C0
C6C0
C6C0
C6C0
C6C0
C6C0
FEC0
7EC0
06C0
06C0
06C0
06C0
06C0
06C0
06C0
06C0
06C0
ENDCHAR
STARTCHAR 021
ENCODING 21
SWIDTH 384 0
DWIDTH 12 0
BBX 10 21 0 -2
BITMAP
7F80
FFC0
C0C0
C040
6000
3000
3800
7C00
E600
C300
C180
6180
3380
1F00
0C00
0600
0300
8180
C0C0
FFC0
7F80
ENDCHAR
STARTCHAR 022
ENCODING 22
SWIDTH 384 0
DWIDTH 12 0
BBX 10 7 0 0
BITMAP
FFC0
FFC0
FFC0
FFC0
FFC0
FFC0
FFC0
ENDCHAR
STARTCHAR 023
ENCODING 23
SWIDTH 384 0
DWIDTH 12 0
BBX 8 19 2 0
BITMAP
18
3C
7E
FF
18
18
18
18
18
18
18
18
FF
7E
3C
18
00
FF
FF
ENDCHAR
STARTCHAR 024
ENCODING 24
SWIDTH 384 0
DWIDTH 12 0
BBX 8 19 2 0
BITMAP
18
3C
7E
FF
18
18
18
18
18
18
18
18
18
18
18
18
18
18
18
ENDCHAR
STARTCHAR 025
ENCODING 25
SWIDTH 384 0
DWIDTH 12 0
BBX 8 19 2 0
BITMAP
18
18
18
18
18
18
18
18
18
18
18
18
18
18
18
FF
7E
3C
18
ENDCHAR
STARTCHAR 026
ENCODING 26
SWIDTH 384 0
DWIDTH 12 0
BBX 11 8 0 3
BITMAP
0F00
0380
00C0
FFE0
FFE0
00C0
0380
0F00
ENDCHAR
STARTCHAR 027
ENCODING 27
SWIDTH 384 0
DWIDTH 12 0
BBX 11 8 0 3
BITMAP
1E00
3800
6000
FFE0
FFE0
6000
3800
1E00
ENDCHAR
STARTCHAR 028
ENCODING 28
SWIDTH 384 0
DWIDTH 12 0
BBX 10 8 0 6
BITMAP
C000
C000
C000
C000
C000
C000
FFC0
FFC0
ENDCHAR
STARTCHAR 029
ENCODING 29
SWIDTH 384 0
DWIDTH 12 0
BBX 10 8 0 3
BITMAP
1200
3300
7380
FFC0
FFC0
7380
3300
1200
ENDCHAR
STARTCHAR 030
ENCODING 30
SWIDTH 384 0
DWIDTH 12 0
BBX 10 13 0 3
BITMAP
0C00
0C00
1E00
1E00
3F00
3F80
7F80
7F80
FFC0
FFC0
FFC0
FFC0
FFC0
ENDCHAR
STARTCHAR 031
ENCODING 31
SWIDTH 384 0
DWIDTH 12 0
BBX 10 12 0 2
BITMAP
FFC0
FFC0
FFC0
FFC0
7F80
7F80
3F00
3F00
1E00
1E00
0C00
0C00
ENDCHAR
STARTCHAR 032
ENCODING 32
SWIDTH 384 0
DWIDTH 12 0
BBX 0 0 0 0
BITMAP
ENDCHAR
STARTCHAR 033
ENCODING 33
SWIDTH 384 0
DWIDTH 12 0
BBX 4 19 4 0
BITMAP
60
F0
F0
F0
F0
F0
F0
F0
60
60
60
60
60
00
00
00
60
60
60
ENDCHAR
STARTCHAR 034
ENCODING 34
SWIDTH 384 0
DWIDTH 12 0
BBX 7 6 2 16
BITMAP
C6
C6
C6
C6
C6
44
ENDCHAR
STARTCHAR 035
ENCODING 35
SWIDTH 384 0
DWIDTH 12 0
BBX 10 14 0 3
BITMAP
3300
3300
3300
FFC0
FFC0
3300
3300
3300
3300
FFC0
FFC0
3300
3300
3300
ENDCHAR
STARTCHAR 036
ENCODING 36
SWIDTH 384 0
DWIDTH 12 0
BBX 10 25 0 -3
BITMAP
0A00
0A00
0A00
7F80
FFC0
CAC0
CAC0
CAC0
CA00
CA00
EA00
7E00
3F80
0BC0
0AC0
0AC0
CAC0
CAC0
CAC0
CAC0
FFC0
7F80
0A00
0A00
0A00
ENDCHAR
STARTCHAR 037
ENCODING 37
SWIDTH 384 0
DWIDTH 12 0
BBX 11 14 0 0
BITMAP
C020
C060
C0E0
01C0
0380
0700
0E00
1C00
3800
7000
E000
C060
8060
0060
ENDCHAR
STARTCHAR 038
ENCODING 38
SWIDTH 384 0
DWIDTH 12 0
BBX 10 19 0 -1
BITMAP
1E00
3F00
6300
6300
6300
6340
36C0
3D80
3F00
6E00
C700
C300
C300
C300
C300
C300
C300
FFC0
7DC0
ENDCHAR
STARTCHAR 039
ENCODING 39
SWIDTH 384 0
DWIDTH 12 0
BBX 4 7 3 15
BITMAP
30
30
30
30
30
F0
E0
ENDCHAR
STARTCHAR 040
ENCODING 40
SWIDTH 384 0
DWIDTH 12 0
BBX 6 19 3 0
BITMAP
1C
3C
70
E0
C0
C0
C0
C0
C0
C0
C0
C0
C0
C0
C0
E0
70
3C
1C
ENDCHAR
STARTCHAR 041
ENCODING 41
SWIDTH 384 0
DWIDTH 12 0
BBX 6 19 3 0
BITMAP
E0
70
38
1C
0C
0C
0C
0C
0C
0C
0C
0C
0C
0C
0C
1C
38
70
E0
ENDCHAR
STARTCHAR 042
ENCODING 42
SWIDTH 384 0
DWIDTH 12 0
BBX 10 12 0 4
BITMAP
7380
7380
7380
1E00
CCC0
FFC0
FFC0
CCC0
1E00
7380
7380
7380
ENDCHAR
STARTCHAR 043
ENCODING 43
SWIDTH 384 0
DWIDTH 12 0
BBX 8 8 1 6
BITMAP
18
18
18
FF
FF
18
18
18
ENDCHAR
STARTCHAR 044
ENCODING 44
SWIDTH 384 0
DWIDTH 12 0
BBX 4 7 2 -2
BITMAP
30
30
30
30
30
F0
E0
ENDCHAR
STARTCHAR 045
ENCODING 45
SWIDTH 384 0
DWIDTH 12 0
BBX 9 2 1 9
BITMAP
FF80
FF80
ENDCHAR
STARTCHAR 046
ENCODING 46
SWIDTH 384 0
DWIDTH 12 0
BBX 2 3 4 0
BITMAP
C0
C0
C0
ENDCHAR
STARTCHAR 047
ENCODING 47
SWIDTH 384 0
DWIDTH 12 0
BBX 10 10 0 5
BITMAP
00C0
0180
0300
0600
0C00
1800
3000
6000
C000
8000
ENDCHAR
STARTCHAR 048
ENCODING 48
SWIDTH 384 0
DWIDTH 12 0
BBX 10 19 0 0
BITMAP
1E00
3F00
7380
E1C0
C0C0
C0C0
C0C0
C0C0
CCC0
CCC0
CCC0
C0C0
C0C0
C0C0
C0C0
E1C0
7380
3F00
1E00
ENDCHAR
STARTCHAR 049
ENCODING 49
SWIDTH 384 0
DWIDTH 12 0
BBX 8 19 2 0
BITMAP
18
38
78
F8
D8
18
18
18
18
18
18
18
18
18
18
18
18
FF
FF
ENDCHAR
STARTCHAR 050
ENCODING 50
SWIDTH 384 0
DWIDTH 12 0
BBX 10 19 0 0
BITMAP
7F80
FFC0
C0C0
C0C0
00C0
00C0
00C0
00C0
3F80
7F00
C000
C000
C000
C000
C000
C0C0
C0C0
FFC0
7FC0
ENDCHAR
STARTCHAR 051
ENCODING 51
SWIDTH 384 0
DWIDTH 12 0
BBX 10 19 0 0
BITMAP
7F80
FFC0
C0C0
C0C0
00C0
00C0
00C0
00C0
1F80
1F80
00C0
00C0
00C0
00C0
00C0
C0C0
C0C0
FFC0
7F80
ENDCHAR
STARTCHAR 052
ENCODING 52
SWIDTH 384 0
DWIDTH 12 0
BBX 10 19 0 0
BITMAP
0300
0700
0F00
1F00
3B00
7300
E300
C300
FFC0
FFC0
0300
0300
0300
0300
0300
0300
0300
0FC0
0FC0
ENDCHAR
STARTCHAR 053
ENCODING 53
SWIDTH 384 0
DWIDTH 12 0
BBX 10 19 0 0
BITMAP
FFC0
FFC0
C000
C000
C000
C000
C000
C000
FF80
FFC0
00C0
00C0
00C0
00C0
00C0
C0C0
C0C0
FFC0
7F80
ENDCHAR
STARTCHAR 054
ENCODING 54
SWIDTH 384 0
DWIDTH 12 0
BBX 10 19 0 0
BITMAP
1F00
3F00
7000
E000
C000
C000
C000
C000
FF00
FF80
C0C0
C0C0
C0C0
C0C0
C0C0
C0C0
C0C0
FFC0
7F80
ENDCHAR
STARTCHAR 055
ENCODING 55
SWIDTH 384 0
DWIDTH 12 0
BBX 10 19 0 0
BITMAP
FFC0
FFC0
C0C0
C0C0
00C0
00C0
01C0
0380
0700
0E00
0C00
0C00
0C00
0C00
0C00
0C00
0C00
0C00
0C00
ENDCHAR
STARTCHAR 056
ENCODING 56
SWIDTH 384 0
DWIDTH 12 0
BBX 10 19 0 0
BITMAP
7F80
FFC0
C0C0
C0C0
C0C0
C0C0
C0C0
C0C0
7F80
7F80
C0C0
C0C0
C0C0
C0C0
C0C0
C0C0
C0C0
FFC0
7F80
ENDCHAR
STARTCHAR 057
ENCODING 57
SWIDTH 384 0
DWIDTH 12 0
BBX 10 19 0 0
BITMAP
7F80
FFC0
C0C0
C0C0
C0C0
C0C0
C0C0
C0C0
7FC0
3FC0
00C0
00C0
00C0
00C0
00C0
01C0
0380
7F00
7E00
ENDCHAR
STARTCHAR 058
ENCODING 58
SWIDTH 384 0
DWIDTH 12 0
BBX 2 10 5 4
BITMAP
C0
C0
C0
00
00
00
00
C0
C0
C0
ENDCHAR
STARTCHAR 059
ENCODING 59
SWIDTH 384 0
DWIDTH 12 0
BBX 4 13 2 -2
BITMAP
30
30
30
00
00
00
30
30
30
30
30
F0
E0
ENDCHAR
STARTCHAR 060
ENCODING 60
SWIDTH 384 0
DWIDTH 12 0
BBX 7 12 0 3
BITMAP
06
0C
18
30
60
C0
C0
60
30
18
0C
06
ENDCHAR
STARTCHAR 061
ENCODING 61
SWIDTH 384 0
DWIDTH 12 0
BBX 9 6 1 7
BITMAP
FF80
FF80
0000
0000
FF80
FF80
ENDCHAR
STARTCHAR 062
ENCODING 62
SWIDTH 384 0
DWIDTH 12 0
BBX 7 12 3 3
BITMAP
C0
60
30
18
0C
06
06
0C
18
30
60
C0
ENDCHAR
STARTCHAR 063
ENCODING 63
SWIDTH 384 0
DWIDTH 12 0
BBX 10 19 0 0
BITMAP
7F80
FFC0
C0C0
C0C0
00C0
01C0
0380
0700
0E00
0C00
0C00
0C00
0C00
0000
0000
0000
0C00
0C00
0C00
ENDCHAR
STARTCHAR 064
ENCODING 64
SWIDTH 384 0
DWIDTH 12 0
BBX 10 18 0 0
BITMAP
7F80
FFC0
C0C0
C0C0
C0C0
C3C0
C7C0
CFC0
CFC0
CFC0
CFC0
CF80
C700
C000
C000
C000
FF80
7F80
ENDCHAR
STARTCHAR 065
ENCODING 65
SWIDTH 384 0
DWIDTH 12 0
BBX 9 19 1 0
BITMAP
0800
1C00
3E00
7700
E380
C180
C180
C180
FF80
FF80
C180
C180
C180
C180
C180
C180
C180
C180
C180
ENDCHAR
STARTCHAR 066
ENCODING 66
SWIDTH 384 0
DWIDTH 12 0
BBX 10 19 0 0
BITMAP
FF80
FFC0
30C0
30C0
30C0
30C0
30C0
30C0
3FC0
3FC0
30C0
30C0
30C0
30C0
30C0
30C0
30C0
FFC0
FF80
ENDCHAR
STARTCHAR 067
ENCODING 67
SWIDTH 384 0
DWIDTH 12 0
BBX 10 19 0 0
BITMAP
1F80
3FC0
70C0
E0C0
C000
C000
C000
C000
C000
C000
C000
C000
C000
C000
C000
E0C0
70C0
3FC0
1F80
ENDCHAR
STARTCHAR 068
ENCODING 68
SWIDTH 384 0
DWIDTH 12 0
BBX 10 19 0 0
BITMAP
FF00
FF80
31C0
30C0
30C0
30C0
30C0
30C0
30C0
30C0
30C0
30C0
30C0
30C0
30C0
30C0
31C0
FF80
FF00
ENDCHAR
STARTCHAR 069
ENCODING 69
SWIDTH 384 0
DWIDTH 12 0
BBX 10 19 0 0
BITMAP
FFC0
FFC0
30C0
30C0
3000
3000
3000
3300
3F00
3F00
3300
3000
3000
3000
3000
30C0
30C0
FFC0
FFC0
ENDCHAR
STARTCHAR 070
ENCODING 70
SWIDTH 384 0
DWIDTH 12 0
BBX 10 19 0 0
BITMAP
FFC0
FFC0
30C0
30C0
3000
3000
3000
3300
3F00
3F00
3300
3000
3000
3000
3000
3000
3000
FC00
FC00
ENDCHAR
STARTCHAR 071
ENCODING 71
SWIDTH 384 0
DWIDTH 12 0
BBX 10 19 0 0
BITMAP
1F80
3FC0
60C0
C0C0
C000
C000
C000
C000
C000
C000
C7C0
C7C0
C0C0
C0C0
C0C0
C0C0
E1C0
7FC0
3EC0
ENDCHAR
STARTCHAR 072
ENCODING 72
SWIDTH 384 0
DWIDTH 12 0
BBX 10 19 0 0
BITMAP
C0C0
C0C0
C0C0
C0C0
C0C0
C0C0
C0C0
C0C0
FFC0
FFC0
C0C0
C0C0
C0C0
C0C0
C0C0
C0C0
C0C0
C0C0
C0C0
ENDCHAR
STARTCHAR 073
ENCODING 73
SWIDTH 384 0
DWIDTH 12 0
BBX 6 19 3 0
BITMAP
FC
FC
30
30
30
30
30
30
30
30
30
30
30
30
30
30
30
FC
FC
ENDCHAR
STARTCHAR 074
ENCODING 74
SWIDTH 384 0
DWIDTH 12 0
BBX 9 19 1 0
BITMAP
1F80
1F80
0600
0600
0600
0600
0600
0600
0600
0600
0600
0600
C600
C600
C600
C600
C600
FE00
7C00
ENDCHAR
STARTCHAR 075
ENCODING 75
SWIDTH 384 0
DWIDTH 12 0
BBX 10 19 0 0
BITMAP
F0C0
F0C0
30C0
30C0
30C0
30C0
30C0
31C0
3F80
3F00
3380
31C0
30C0
30C0
30C0
30C0
30C0
F0C0
F0C0
ENDCHAR
STARTCHAR 076
ENCODING 76
SWIDTH 384 0
DWIDTH 12 0
BBX 10 19 0 0
BITMAP
FC00
FC00
3000
3000
3000
3000
3000
3000
3000
3000
3000
3000
3000
3000
3000
30C0
30C0
FFC0
FFC0
ENDCHAR
STARTCHAR 077
ENCODING 77
SWIDTH 384 0
DWIDTH 12 0
BBX 10 19 0 0
BITMAP
6180
F3C0
FFC0
FFC0
DEC0
CCC0
CCC0
CCC0
CCC0
CCC0
CCC0
C0C0
C0C0
C0C0
C0C0
C0C0
C0C0
C0C0
C0C0
ENDCHAR
STARTCHAR 078
ENCODING 78
SWIDTH 384 0
DWIDTH 12 0
BBX 10 19 0 0
BITMAP
C0C0
C0C0
E0C0
F0C0
F8C0
DCC0
CEC0
C7C0
C3C0
C1C0
C0C0
C0C0
C0C0
C0C0
C0C0
C0C0
C0C0
C0C0
C0C0
ENDCHAR
STARTCHAR 079
ENCODING 79
SWIDTH 384 0
DWIDTH 12 0
BBX 9 19 1 0
BITMAP
7F00
FF80
C180
C180
C180
C180
C180
C180
C180
C180
C180
C180
C180
C180
C180
C180
C180
FF80
7F00
ENDCHAR
STARTCHAR 080
ENCODING 80
SWIDTH 384 0
DWIDTH 12 0
BBX 10 19 1 0
BITMAP
FF80
FFC0
30C0
30C0
30C0
30C0
30C0
31C0
3F80
3F00
3000
3000
3000
3000
3000
3000
3000
FC00
FC00
ENDCHAR
STARTCHAR 081
ENCODING 81
SWIDTH 384 0
DWIDTH 12 0
BBX 9 22 1 -3
BITMAP
7F00
FF80
C180
C180
C180
C180
C180
C180
C180
C180
C180
C180
C180
C180
D980
D980
D980
FF80
7F00
1C00
0F80
0780
ENDCHAR
STARTCHAR 082
ENCODING 82
SWIDTH 384 0
DWIDTH 12 0
BBX 10 19 0 0
BITMAP
FF80
FFC0
30C0
30C0
30C0
30C0
30C0
30C0
3F80
3F80
31C0
30C0
30C0
30C0
30C0
30C0
30C0
F0C0
F0C0
ENDCHAR
STARTCHAR 083
ENCODING 83
SWIDTH 384 0
DWIDTH 12 0
BBX 10 19 0 0
BITMAP
7F80
FFC0
C0C0
C0C0
C000
C000
C000
C000
7F00
3F80
00C0
00C0
00C0
00C0
00C0
C0C0
C0C0
FFC0
7F80
ENDCHAR
STARTCHAR 084
ENCODING 84
SWIDTH 384 0
DWIDTH 12 0
BBX 10 19 1 0
BITMAP
FFC0
FFC0
CCC0
CCC0
0C00
0C00
0C00
0C00
0C00
0C00
0C00
0C00
0C00
0C00
0C00
0C00
0C00
3F00
3F00
ENDCHAR
STARTCHAR 085
ENCODING 85
SWIDTH 384 0
DWIDTH 12 0
BBX 9 19 1 0
BITMAP
C180
C180
C180
C180
C180
C180
C180
C180
C180
C180
C180
C180
C180
C180
C180
C180
C180
FF80
7F00
ENDCHAR
STARTCHAR 086
ENCODING 86
SWIDTH 384 0
DWIDTH 12 0
BBX 10 19 0 0
BITMAP
C0C0
C0C0
C0C0
C0C0
C0C0
C0C0
C0C0
C0C0
C0C0
C0C0
C0C0
C0C0
C0C0
C0C0
E1C0
7380
3F00
1E00
0C00
ENDCHAR
STARTCHAR 087
ENCODING 87
SWIDTH 384 0
DWIDTH 12 0
BBX 10 19 0 0
BITMAP
C0C0
C0C0
C0C0
C0C0
C0C0
C0C0
C0C0
C0C0
CCC0
CCC0
CCC0
CCC0
CCC0
CCC0
DEC0
FFC0
FFC0
F3C0
6180
ENDCHAR
STARTCHAR 088
ENCODING 88
SWIDTH 384 0
DWIDTH 12 0
BBX 10 19 0 0
BITMAP
C0C0
C0C0
C0C0
6180
6180
3300
3300
1E00
1E00
0C00
1E00
1E00
3300
3300
6180
6180
C0C0
C0C0
C0C0
ENDCHAR
STARTCHAR 089
ENCODING 89
SWIDTH 384 0
DWIDTH 12 0
BBX 8 19 2 0
BITMAP
C3
C3
C3
C3
C3
C3
C3
C3
FF
7E
18
18
18
18
18
18
18
7E
7E
ENDCHAR
STARTCHAR 090
ENCODING 90
SWIDTH 384 0
DWIDTH 12 0
BBX 10 19 0 0
BITMAP
FFC0
FFC0
C0C0
C0C0
00C0
00C0
01C0
0380
0700
0E00
1C00
3800
7000
E000
C000
C0C0
C0C0
FFC0
FFC0
ENDCHAR
STARTCHAR 091
ENCODING 91
SWIDTH 384 0
DWIDTH 12 0
BBX 6 19 3 0
BITMAP
FC
FC
C0
C0
C0
C0
C0
C0
C0
C0
C0
C0
C0
C0
C0
C0
C0
FC
FC
ENDCHAR
STARTCHAR 092
ENCODING 92
SWIDTH 384 0
DWIDTH 12 0
BBX 10 12 0 3
BITMAP
8000
C000
E000
7000
3800
1C00
0E00
0700
0380
01C0
00C0
0040
ENDCHAR
STARTCHAR 093
ENCODING 93
SWIDTH 384 0
DWIDTH 12 0
BBX 6 19 3 0
BITMAP
FC
FC
0C
0C
0C
0C
0C
0C
0C
0C
0C
0C
0C
0C
0C
0C
0C
FC
FC
ENDCHAR
STARTCHAR 094
ENCODING 94
SWIDTH 384 0
DWIDTH 12 0
BBX 11 6 0 14
BITMAP
0400
0E00
1B00
3180
60C0
C060
ENDCHAR
STARTCHAR 095
ENCODING 95
SWIDTH 384 0
DWIDTH 12 0
BBX 12 2 0 -3
BITMAP
FFF0
FFF0
ENDCHAR
STARTCHAR 096
ENCODING 96
SWIDTH 384 0
DWIDTH 12 0
BBX 4 7 4 15
BITMAP
C0
C0
C0
C0
C0
F0
70
ENDCHAR
STARTCHAR 097
ENCODING 97
SWIDTH 384 0
DWIDTH 12 0
BBX 10 13 1 0
BITMAP
7E00
7F00
0300
0300
0300
7F00
FF00
C300
C300
C300
C300
FFC0
7DC0
ENDCHAR
STARTCHAR 098
ENCODING 98
SWIDTH 384 0
DWIDTH 12 0
BBX 10 19 0 0
BITMAP
F000
F000
3000
3000
3000
3000
3F00
3F80
30C0
30C0
30C0
30C0
30C0
30C0
30C0
30C0
30C0
3FC0
3F80
ENDCHAR
STARTCHAR 099
ENCODING 99
SWIDTH 384 0
DWIDTH 12 0
BBX 9 13 1 0
BITMAP
7F00
FF80
C180
C180
C000
C000
C000
C000
C000
C180
C180
FF80
7F00
ENDCHAR
STARTCHAR 100
ENCODING 100
SWIDTH 384 0
DWIDTH 12 0
BBX 10 19 0 0
BITMAP
0F00
0F00
0300
0300
0300
0300
3F00
7F00
C300
C300
C300
C300
C300
C300
C300
C300
C300
FFC0
7DC0
ENDCHAR
STARTCHAR 101
ENCODING 101
SWIDTH 384 0
DWIDTH 12 0
BBX 10 13 0 0
BITMAP
7F80
FFC0
C0C0
C0C0
C0C0
FFC0
FFC0
C000
C000
C0C0
C0C0
FFC0
7F80
ENDCHAR
STARTCHAR 102
ENCODING 102
SWIDTH 384 0
DWIDTH 12 0
BBX 8 19 2 0
BITMAP
0E
1F
33
31
31
30
FC
FC
30
30
30
30
30
30
30
30
30
FC
FC
ENDCHAR
STARTCHAR 103
ENCODING 103
SWIDTH 384 0
DWIDTH 12 0
BBX 10 18 0 -5
BITMAP
7DC0
FFC0
C300
C300
C300
C300
C300
C300
C300
C300
C300
7F00
7F00
0300
0300
C300
FF00
7E00
ENDCHAR
STARTCHAR 104
ENCODING 104
SWIDTH 384 0
DWIDTH 12 0
BBX 10 19 0 0
BITMAP
F000
F000
3000
3000
3000
3000
3300
3780
3CC0
38C0
30C0
30C0
30C0
30C0
30C0
30C0
30C0
F0C0
F0C0
ENDCHAR
STARTCHAR 105
ENCODING 105
SWIDTH 384 0
DWIDTH 12 0
BBX 6 18 3 0
BITMAP
30
30
30
00
00
F0
F0
30
30
30
30
30
30
30
30
30
FC
FC
ENDCHAR
STARTCHAR 106
ENCODING 106
SWIDTH 384 0
DWIDTH 12 0
BBX 7 23 2 -5
BITMAP
06
06
06
00
00
1E
1E
06
06
06
06
06
06
06
06
06
06
06
C6
C6
C6
FE
7C
ENDCHAR
STARTCHAR 107
ENCODING 107
SWIDTH 384 0
DWIDTH 12 0
BBX 10 19 0 0
BITMAP
F000
F000
3000
3000
3000
30C0
30C0
31C0
3380
3700
3E00
3F00
3380
31C0
30C0
30C0
30C0
F0C0
F0C0
ENDCHAR
STARTCHAR 108
ENCODING 108
SWIDTH 384 0
DWIDTH 12 0
BBX 6 19 3 0
BITMAP
F0
F0
30
30
30
30
30
30
30
30
30
30
30
30
30
30
30
FC
FC
ENDCHAR
STARTCHAR 109
ENCODING 109
SWIDTH 384 0
DWIDTH 12 0
BBX 10 13 0 0
BITMAP
6180
F3C0
FFC0
DEC0
CCC0
CCC0
CCC0
CCC0
CCC0
CCC0
C0C0
C0C0
C0C0
ENDCHAR
STARTCHAR 110
ENCODING 110
SWIDTH 384 0
DWIDTH 12 0
BBX 10 13 0 0
BITMAP
EF80
FFC0
38C0
30C0
30C0
30C0
30C0
30C0
30C0
30C0
30C0
30C0
30C0
ENDCHAR
STARTCHAR 111
ENCODING 111
SWIDTH 384 0
DWIDTH 12 0
BBX 9 13 1 0
BITMAP
7F00
FF80
C180
C180
C180
C180
C180
C180
C180
C180
C180
FF80
7F00
ENDCHAR
STARTCHAR 112
ENCODING 112
SWIDTH 384 0
DWIDTH 12 0
BBX 10 18 0 -5
BITMAP
EF80
FFC0
30C0
30C0
30C0
30C0
30C0
30C0
30C0
30C0
30C0
3FC0
3F80
3000
3000
3000
FC00
FC00
ENDCHAR
STARTCHAR 113
ENCODING 113
SWIDTH 384 0
DWIDTH 12 0
BBX 10 18 0 -5
BITMAP
7DC0
FFC0
C300
C300
C300
C300
C300
C300
C300
C300
C300
FF00
7F00
0300
0300
0300
0FC0
0FC0
ENDCHAR
STARTCHAR 114
ENCODING 114
SWIDTH 384 0
DWIDTH 12 0
BBX 10 13 0 0
BITMAP
EF80
FFC0
38C0
3040
3000
3000
3000
3000
3000
3000
3000
FC00
FC00
ENDCHAR
STARTCHAR 115
ENCODING 115
SWIDTH 384 0
DWIDTH 12 0
BBX 10 13 0 0
BITMAP
7F80
FFC0
C0C0
C0C0
E000
7F00
3F80
01C0
00C0
C0C0
C0C0
FFC0
7F80
ENDCHAR
STARTCHAR 116
ENCODING 116
SWIDTH 384 0
DWIDTH 12 0
BBX 8 19 1 0
BITMAP
08
18
18
18
18
18
FF
FF
18
18
18
18
18
18
18
1B
1B
1F
0E
ENDCHAR
STARTCHAR 117
ENCODING 117
SWIDTH 384 0
DWIDTH 12 0
BBX 10 13 0 0
BITMAP
C300
C300
C300
C300
C300
C300
C300
C300
C300
C300
C300
FFC0
7DC0
ENDCHAR
STARTCHAR 118
ENCODING 118
SWIDTH 384 0
DWIDTH 12 0
BBX 9 13 1 0
BITMAP
C180
C180
C180
C180
C180
C180
C180
C180
E380
7700
3E00
1C00
0800
ENDCHAR
STARTCHAR 119
ENCODING 119
SWIDTH 384 0
DWIDTH 12 0
BBX 10 13 0 0
BITMAP
C0C0
C0C0
C0C0
C0C0
C0C0
CCC0
CCC0
CCC0
CCC0
CCC0
DEC0
FFC0
7380
ENDCHAR
STARTCHAR 120
ENCODING 120
SWIDTH 384 0
DWIDTH 12 0
BBX 10 13 0 0
BITMAP
C0C0
E1C0
7380
3F00
1E00
0C00
0C00
1E00
3F00
7380
E1C0
C0C0
C0C0
ENDCHAR
STARTCHAR 121
ENCODING 121
SWIDTH 384 0
DWIDTH 12 0
BBX 9 18 1 -5
BITMAP
C180
C180
C180
C180
C180
C180
C180
C180
C180
C180
C180
FF80
7F80
0180
0380
0700
FE00
FC00
ENDCHAR
STARTCHAR 122
ENCODING 122
SWIDTH 384 0
DWIDTH 12 0
BBX 10 13 0 0
BITMAP
FFC0
FFC0
C0C0
C180
0300
0600
0C00
1800
3000
60C0
C0C0
FFC0
FFC0
ENDCHAR
STARTCHAR 123
ENCODING 123
SWIDTH 384 0
DWIDTH 12 0
BBX 9 19 1 0
BITMAP
0F80
1F80
1800
1800
1800
1800
1800
1800
7800
E000
7800
1800
1800
1800
1800
1800
1800
1F80
0F80
ENDCHAR
STARTCHAR 124
ENCODING 124
SWIDTH 384 0
DWIDTH 12 0
BBX 2 19 5 0
BITMAP
C0
C0
C0
C0
C0
C0
C0
C0
00
00
00
C0
C0
C0
C0
C0
C0
C0
C0
ENDCHAR
STARTCHAR 125
ENCODING 125
SWIDTH 384 0
DWIDTH 12 0
BBX 9 19 2 0
BITMAP
F800
FC00
0C00
0C00
0C00
0C00
0C00
0C00
0F00
0380
0F00
0C00
0C00
0C00
0C00
0C00
0C00
FC00
F800
ENDCHAR
STARTCHAR 126
ENCODING 126
SWIDTH 384 0
DWIDTH 12 0
BBX 11 5 0 14
BITMAP
3C60
66C0
C6C0
86C0
8380
ENDCHAR
STARTCHAR 127
ENCODING 127
SWIDTH 384 0
DWIDTH 12 0
BBX 10 14 0 1
BITMAP
0C00
1E00
3F00
7380
E1C0
C0C0
C0C0
C0C0
C0C0
C0C0
C0C0
C0C0
FFC0
FFC0
ENDCHAR
STARTCHAR 128
ENCODING 128
SWIDTH 384 0
DWIDTH 12 0
BBX 10 22 0 -4
BITMAP
1F80
3FC0
70C0
E0C0
C000
C000
C000
C000
C000
C000
C000
C000
C000
C000
E0C0
70C0
3FC0
1F80
03C0
00C0
7FC0
7F80
ENDCHAR
STARTCHAR 129
ENCODING 129
SWIDTH 384 0
DWIDTH 12 0
BBX 10 19 0 0
BITMAP
C300
C300
C300
0000
0000
0000
C300
C300
C300
C300
C300
C300
C300
C300
C300
C300
C300
FFC0
7DC0
ENDCHAR
STARTCHAR 130
ENCODING 130
SWIDTH 384 0
DWIDTH 12 0
BBX 10 20 0 0
BITMAP
0180
0300
0600
0C00
1800
0000
0000
7F80
FFC0
C0C0
C0C0
C0C0
FFC0
FFC0
C000
C000
C0C0
C0C0
FFC0
7F80
ENDCHAR
STARTCHAR 131
ENCODING 131
SWIDTH 384 0
DWIDTH 12 0
BBX 10 20 1 0
BITMAP
0800
1C00
3600
6300
0000
0000
0000
7E00
7F00
0300
0300
0300
7F00
FF00
C300
C300
C300
C300
FFC0
7DC0
ENDCHAR
STARTCHAR 132
ENCODING 132
SWIDTH 384 0
DWIDTH 12 0
BBX 10 19 1 0
BITMAP
6300
6300
6300
0000
0000
0000
7E00
7F00
0300
0300
0300
7F00
FF00
C300
C300
C300
C300
FFC0
7DC0
ENDCHAR
STARTCHAR 133
ENCODING 133
SWIDTH 384 0
DWIDTH 12 0
BBX 10 20 1 0
BITMAP
6000
3000
1800
0C00
0600
0000
0000
7E00
7F00
0300
0300
0300
7F00
FF00
C300
C300
C300
C300
FFC0
7DC0
ENDCHAR
STARTCHAR 134
ENCODING 134
SWIDTH 384 0
DWIDTH 12 0
BBX 10 20 1 0
BITMAP
1E00
3F00
3300
3300
3F00
1E00
0000
7E00
7F00
0300
0300
0300
7F00
FF00
C300
C300
C300
C300
FFC0
7DC0
ENDCHAR
STARTCHAR 135
ENCODING 135
SWIDTH 384 0
DWIDTH 12 0
BBX 9 17 1 -4
BITMAP
7F00
FF80
C180
C180
C000
C000
C000
C000
C180
C180
C700
FE00
7F00
0380
0180
7F80
7F00
ENDCHAR
STARTCHAR 136
ENCODING 136
SWIDTH 384 0
DWIDTH 12 0
BBX 10 20 0 0
BITMAP
0C00
1E00
3300
6180
0000
0000
0000
7F80
FFC0
C0C0
C0C0
C0C0
FFC0
FFC0
C000
C000
C0C0
C0C0
FFC0
7F80
ENDCHAR
STARTCHAR 137
ENCODING 137
SWIDTH 384 0
DWIDTH 12 0
BBX 10 19 0 0
BITMAP
6180
6180
6180
0000
0000
0000
7F80
FFC0
C0C0
C0C0
C0C0
FFC0
FFC0
C000
C000
C0C0
C0C0
FFC0
7F80
ENDCHAR
STARTCHAR 138
ENCODING 138
SWIDTH 384 0
DWIDTH 12 0
BBX 10 20 0 0
BITMAP
6000
3000
1800
0C00
0600
0000
0000
7F80
FFC0
C0C0
C0C0
C0C0
FFC0
FFC0
C000
C000
C0C0
C0C0
FFC0
7F80
ENDCHAR
STARTCHAR 139
ENCODING 139
SWIDTH 384 0
DWIDTH 12 0
BBX 7 18 2 0
BITMAP
C6
C6
C6
00
00
78
78
18
18
18
18
18
18
18
18
18
7E
7E
ENDCHAR
STARTCHAR 140
ENCODING 140
SWIDTH 384 0
DWIDTH 12 0
BBX 7 20 2 0
BITMAP
10
38
6C
C6
00
00
00
78
78
18
18
18
18
18
18
18
18
18
7E
7E
ENDCHAR
STARTCHAR 141
ENCODING 141
SWIDTH 384 0
DWIDTH 12 0
BBX 7 20 2 0
BITMAP
C0
60
30
18
00
00
00
78
78
18
18
18
18
18
18
18
18
18
7E
7E
ENDCHAR
STARTCHAR 142
ENCODING 142
SWIDTH 384 0
DWIDTH 12 0
BBX 9 22 1 0
BITMAP
6300
6300
6300
0800
1C00
3E00
7700
E380
C180
C180
C180
FF80
FF80
C180
C180
C180
C180
C180
C180
C180
C180
C180
ENDCHAR
STARTCHAR 143
ENCODING 143
SWIDTH 384 0
DWIDTH 12 0
BBX 9 22 1 0
BITMAP
1C00
3E00
3600
3E00
1C00
0800
1C00
3E00
7700
E380
C180
C180
FF80
FF80
C180
C180
C180
C180
C180
C180
C180
C180
ENDCHAR
STARTCHAR 144
ENCODING 144
SWIDTH 384 0
DWIDTH 12 0
BBX 10 22 0 0
BITMAP
0180
0300
0600
0C00
0000
FFC0
FFC0
30C0
30C0
3000
3000
3300
3F00
3F00
3300
3000
3000
3000
30C0
30C0
FFC0
FFC0
ENDCHAR
STARTCHAR 145
ENCODING 145
SWIDTH 384 0
DWIDTH 12 0
BBX 10 14 0 0
BITMAP
C180
E3C0
77C0
3EC0
1CC0
18C0
30C0
7FC0
FF80
C300
C300
C300
FFC0
7BC0
ENDCHAR
STARTCHAR 146
ENCODING 146
SWIDTH 384 0
DWIDTH 12 0
BBX 10 19 0 0
BITMAP
1FC0
3FC0
7300
E300
C300
C300
FFC0
FFC0
C300
C300
C300
C300
C300
C300
C300
C300
C300
C3C0
C3C0
ENDCHAR
STARTCHAR 147
ENCODING 147
SWIDTH 384 0
DWIDTH 12 0
BBX 9 20 1 0
BITMAP
0800
1C00
3600
6300
0000
0000
0000
7F00
FF80
C180
C180
C180
C180
C180
C180
C180
C180
C180
FF80
7F00
ENDCHAR
STARTCHAR 148
ENCODING 148
SWIDTH 384 0
DWIDTH 12 0
BBX 9 19 1 0
BITMAP
6300
6300
6300
0000
0000
0000
7F00
FF80
C180
C180
C180
C180
C180
C180
C180
C180
C180
FF80
7F00
ENDCHAR
STARTCHAR 149
ENCODING 149
SWIDTH 384 0
DWIDTH 12 0
BBX 9 20 1 0
BITMAP
6000
3000
1800
0C00
0600
0000
0000
7F00
FF80
C180
C180
C180
C180
C180
C180
C180
C180
C180
FF80
7F00
ENDCHAR
STARTCHAR 150
ENCODING 150
SWIDTH 384 0
DWIDTH 12 0
BBX 10 20 0 0
BITMAP
0800
1C00
3600
6300
0000
0000
0000
C180
C180
C180
C180
C180
C180
C180
C180
C180
C180
C180
FFC0
7DC0
ENDCHAR
STARTCHAR 151
ENCODING 151
SWIDTH 384 0
DWIDTH 12 0
BBX 10 20 0 0
BITMAP
6000
3000
1800
0C00
0600
0000
0000
C180
C180
C180
C180
C180
C180
C180
C180
C180
C180
C180
FFC0
7DC0
ENDCHAR
STARTCHAR 152
ENCODING 152
SWIDTH 384 0
DWIDTH 12 0
BBX 9 24 1 -5
BITMAP
C180
C180
C180
0000
0000
0000
C180
C180
C180
C180
C180
C180
C180
C180
C180
C180
C180
7F80
3F80
0180
0380
0700
FE00
FC00
ENDCHAR
STARTCHAR 153
ENCODING 153
SWIDTH 384 0
DWIDTH 12 0
BBX 9 22 1 0
BITMAP
6300
6300
6300
0000
0000
7F00
FF80
C180
C180
C180
C180
C180
C180
C180
C180
C180
C180
C180
C180
C180
FF80
7F00
ENDCHAR
STARTCHAR 154
ENCODING 154
SWIDTH 384 0
DWIDTH 12 0
BBX 9 22 1 0
BITMAP
C180
C180
C180
0000
0000
C180
C180
C180
C180
C180
C180
C180
C180
C180
C180
C180
C180
C180
C180
C180
FF80
7F00
ENDCHAR
STARTCHAR 155
ENCODING 155
SWIDTH 384 0
DWIDTH 12 0
BBX 10 25 0 -3
BITMAP
0A00
0A00
0A00
1F80
3FC0
7AC0
EAC0
CA00
CA00
CA00
CA00
CA00
CA00
CA00
CA00
CA00
CA00
CA00
EAC0
7AC0
3FC0
1F80
0A00
0A00
0A00
ENDCHAR
STARTCHAR 156
ENCODING 156
SWIDTH 384 0
DWIDTH 12 0
BBX 10 21 0 0
BITMAP
1E00
3F00
3180
3080
3080
3080
3000
3000
FC00
F800
3000
3000
3000
3000
3000
3040
3040
3040
30C0
FFC0
FF80
ENDCHAR
STARTCHAR 157
ENCODING 157
SWIDTH 384 0
DWIDTH 12 0
BBX 8 19 2 0
BITMAP
C3
C3
C3
C3
66
3C
18
18
FF
FF
18
18
FF
FF
18
18
18
18
18
ENDCHAR
STARTCHAR 158
ENCODING 158
SWIDTH 384 0
DWIDTH 12 0
BBX 10 21 0 0
BITMAP
FE00
FF00
C180
C180
C180
C180
FF00
FE00
C080
C180
C180
C3C0
C3C0
C180
C180
C180
C180
C180
C180
C1C0
C0C0
ENDCHAR
STARTCHAR 159
ENCODING 159
SWIDTH 384 0
DWIDTH 12 0
BBX 12 23 0 -3
BITMAP
03E0
07F0
0630
0610
0610
0600
0600
0600
0600
3FC0
3FC0
0600
0600
0600
0600
0600
0600
0600
8600
8600
C600
FE00
7C00
ENDCHAR
STARTCHAR 160
ENCODING 160
SWIDTH 384 0
DWIDTH 12 0
BBX 10 20 1 0
BITMAP
0600
0C00
1800
3000
6000
0000
0000
7E00
7F00
0300
0300
0300
7F00
FF00
C300
C300
C300
E300
FFC0
7DC0
ENDCHAR
STARTCHAR 161
ENCODING 161
SWIDTH 384 0
DWIDTH 12 0
BBX 6 20 3 0
BITMAP
0C
18
30
60
C0
00
00
F0
F0
30
30
30
30
30
30
30
30
30
FC
FC
ENDCHAR
STARTCHAR 162
ENCODING 162
SWIDTH 384 0
DWIDTH 12 0
BBX 9 20 1 0
BITMAP
0300
0600
0C00
1800
3000
0000
0000
7F00
FF80
C180
C180
C180
C180
C180
C180
C180
C180
C180
FF80
7F00
ENDCHAR
STARTCHAR 163
ENCODING 163
SWIDTH 384 0
DWIDTH 12 0
BBX 10 20 0 0
BITMAP
0300
0600
0C00
1800
3000
0000
0000
C300
C300
C300
C300
C300
C300
C300
C300
C300
C300
C300
FFC0
7DC0
ENDCHAR
STARTCHAR 164
ENCODING 164
SWIDTH 384 0
DWIDTH 12 0
BBX 10 19 0 0
BITMAP
38C0
6C80
C780
0000
0000
0000
EF80
FFC0
38C0
30C0
30C0
30C0
30C0
30C0
30C0
30C0
30C0
30C0
30C0
ENDCHAR
STARTCHAR 165
ENCODING 165
SWIDTH 384 0
DWIDTH 12 0
BBX 10 21 0 0
BITMAP
1EC0
3380
E100
0000
C0C0
E0C0
F0C0
F8C0
DCC0
CEC0
C7C0
C3C0
C1C0
C0C0
C0C0
C0C0
C0C0
C0C0
C0C0
C0C0
C0C0
ENDCHAR
STARTCHAR 166
ENCODING 166
SWIDTH 384 0
DWIDTH 12 0
BBX 8 12 2 8
BITMAP
7C
FC
CC
CC
CC
CC
FF
7F
00
00
FF
FF
ENDCHAR
STARTCHAR 167
ENCODING 167
SWIDTH 384 0
DWIDTH 12 0
BBX 8 12 2 8
BITMAP
7E
FF
C3
C3
C3
C3
FF
7E
00
00
FF
FF
ENDCHAR
STARTCHAR 168
ENCODING 168
SWIDTH 384 0
DWIDTH 12 0
BBX 10 21 0 0
BITMAP
0600
0600
0600
0000
0000
0000
0600
0600
0600
0E00
1C00
3800
7000
E000
C000
C000
C000
C0C0
C0C0
FFC0
7F80
ENDCHAR
STARTCHAR 169
ENCODING 169
SWIDTH 384 0
DWIDTH 12 0
BBX 10 12 0 0
BITMAP
FFC0
FFC0
C000
C000
C000
C000
C000
C000
C000
C000
C000
C000
ENDCHAR
STARTCHAR 170
ENCODING 170
SWIDTH 384 0
DWIDTH 12 0
BBX 10 12 0 0
BITMAP
FFC0
FFC0
00C0
00C0
00C0
00C0
00C0
00C0
00C0
00C0
00C0
00C0
ENDCHAR
STARTCHAR 171
ENCODING 171
SWIDTH 384 0
DWIDTH 12 0
BBX 10 19 0 0
BITMAP
C000
C000
C040
C0C0
C180
C300
C600
CC00
1800
3000
6000
CF80
90C0
00C0
0180
0300
0600
0C40
1FC0
ENDCHAR
STARTCHAR 172
ENCODING 172
SWIDTH 384 0
DWIDTH 12 0
BBX 10 19 0 0
BITMAP
C000
C000
C040
C0C0
C180
C300
C600
CC80
1980
3380
6780
CD80
9980
1FC0
1FC0
0180
0180
0180
0180
ENDCHAR
STARTCHAR 173
ENCODING 173
SWIDTH 384 0
DWIDTH 12 0
BBX 4 19 4 0
BITMAP
60
60
60
00
00
00
60
60
60
60
60
F0
F0
F0
F0
F0
F0
F0
60
ENDCHAR
STARTCHAR 174
ENCODING 174
SWIDTH 384 0
DWIDTH 12 0
BBX 11 11 0 2
BITMAP
0660
0CC0
1980
3300
6600
CC00
6600
3300
1980
0CC0
0660
ENDCHAR
STARTCHAR 175
ENCODING 175
SWIDTH 384 0
DWIDTH 12 0
BBX 11 11 0 2
BITMAP
CC00
6600
3300
1980
0CC0
0660
0CC0
1980
3300
6600
CC00
ENDCHAR
STARTCHAR 176
ENCODING 176
SWIDTH 384 0
DWIDTH 12 0
BBX 12 30 0 -8
BITMAP
AAAA
5554
AAAA
5554
AAAA
5554
AAAA
5554
AAAA
5554
AAAA
5554
AAAA
5554
AAAA
5554
AAAA
5554
AAAA
5554
AAAA
5554
AAAA
5554
AAAA
5554
AAAA
5554
AAAA
5554
ENDCHAR
STARTCHAR 177
ENCODING 177
SWIDTH 384 0
DWIDTH 12 0
BBX 12 30 0 -8
BITMAP
FFFF
EDB6
FFFF
DB6D
FFFF
B6DB
FFFF
EDB6
FFFF
DB6D
FFFF
EDB6
FFFF
DB6D
FFFF
B6DA
FFFF
EDB6
FFFF
DB6D
FFFF
B6DB
FFFF
EDB6
FFFF
DB6D
FFFF
B6DB
FFFF
EB6D
ENDCHAR
STARTCHAR 178
ENCODING 178
SWIDTH 384 0
DWIDTH 12 0
BBX 12 30 0 -8
BITMAP
BEFB
F7DF
FFFF
BEFB
F7DF
FFFF
BEFB
F7DF
FFFF
BEFB
F7DF
FFFF
BEFB
F7DF
FFFF
BEFB
F7DF
FFFF
BEFB
F7DF
FFFF
BEFB
F7DF
FFFF
BEFB
F7DF
FFFF
BEFB
F7DF
FFFF
ENDCHAR
STARTCHAR 179
ENCODING 179
SWIDTH 384 0
DWIDTH 12 0
BBX 2 30 5 -8
BITMAP
C0
C0
C0
C0
C0
C0
C0
C0
C0
C0
C0
C0
C0
C0
C0
C0
C0
C0
C0
C0
C0
C0
C0
C0
C0
C0
C0
C0
C0
C0
ENDCHAR
STARTCHAR 180
ENCODING 180
SWIDTH 384 0
DWIDTH 12 0
BBX 7 30 0 -8
BITMAP
06
06
06
06
06
06
06
06
06
06
06
06
06
06
FE
FE
06
06
06
06
06
06
06
06
06
06
06
06
06
06
ENDCHAR
STARTCHAR 181
ENCODING 181
SWIDTH 384 0
DWIDTH 12 0
BBX 7 30 0 -8
BITMAP
06
06
06
06
06
06
06
06
06
06
06
06
FE
FE
06
06
FE
FE
06
06
06
06
06
06
06
06
06
06
06
06
ENDCHAR
STARTCHAR 182
ENCODING 182
SWIDTH 384 0
DWIDTH 12 0
BBX 12 30 0 -8
BITMAP
1980
1980
1980
1980
1980
1980
1980
1980
1980
1980
1980
1980
1980
1980
F980
F980
1980
1980
1980
1980
1980
1980
1980
1980
1980
1980
1980
1980
1980
1980
ENDCHAR
STARTCHAR 183
ENCODING 183
SWIDTH 384 0
DWIDTH 12 0
BBX 9 16 0 -8
BITMAP
FF80
FF80
1980
1980
1980
1980
1980
1980
1980
1980
1980
1980
1980
1980
1980
1980
ENDCHAR
STARTCHAR 184
ENCODING 184
SWIDTH 384 0
DWIDTH 12 0
BBX 7 18 0 -8
BITMAP
FE
FE
06
06
FE
FE
06
06
06
06
06
06
06
06
06
06
06
06
ENDCHAR
STARTCHAR 185
ENCODING 185
SWIDTH 384 0
DWIDTH 12 0
BBX 12 30 0 -8
BITMAP
1980
1980
1980
1980
1980
1980
1980
1980
1980
1980
1980
1980
F980
F980
0180
0180
F980
F980
1980
1980
1980
1980
1980
1980
1980
1980
1980
1980
1980
1980
ENDCHAR
STARTCHAR 186
ENCODING 186
SWIDTH 384 0
DWIDTH 12 0
BBX 6 30 3 -8
BITMAP
CC
CC
CC
CC
CC
CC
CC
CC
CC
CC
CC
CC
CC
CC
CC
CC
CC
CC
CC
CC
CC
CC
CC
CC
CC
CC
CC
CC
CC
CC
ENDCHAR
STARTCHAR 187
ENCODING 187
SWIDTH 384 0
DWIDTH 12 0
BBX 9 18 0 -8
BITMAP
FF80
FF80
0180
0180
F980
F980
1980
1980
1980
1980
1980
1980
1980
1980
1980
1980
1980
1980
ENDCHAR
STARTCHAR 188
ENCODING 188
SWIDTH 384 0
DWIDTH 12 0
BBX 9 18 0 4
BITMAP
1980
1980
1980
1980
1980
1980
1980
1980
1980
1980
1980
1980
F980
F980
0180
0180
FF80
FF80
ENDCHAR
STARTCHAR 189
ENCODING 189
SWIDTH 384 0
DWIDTH 12 0
BBX 9 16 0 6
BITMAP
1980
1980
1980
1980
1980
1980
1980
1980
1980
1980
1980
1980
1980
1980
FF80
FF80
ENDCHAR
STARTCHAR 190
ENCODING 190
SWIDTH 384 0
DWIDTH 12 0
BBX 7 18 0 4
BITMAP
06
06
06
06
06
06
06
06
06
06
06
06
FE
FE
06
06
FE
FE
ENDCHAR
STARTCHAR 191
ENCODING 191
SWIDTH 384 0
DWIDTH 12 0
BBX 7 16 0 -8
BITMAP
FE
FE
06
06
06
06
06
06
06
06
06
06
06
06
06
06
ENDCHAR
STARTCHAR 192
ENCODING 192
SWIDTH 384 0
DWIDTH 12 0
BBX 7 16 5 6
BITMAP
C0
C0
C0
C0
C0
C0
C0
C0
C0
C0
C0
C0
C0
C0
FE
FE
ENDCHAR
STARTCHAR 193
ENCODING 193
SWIDTH 384 0
DWIDTH 12 0
BBX 12 16 0 6
BITMAP
0600
0600
0600
0600
0600
0600
0600
0600
0600
0600
0600
0600
0600
0600
FFF0
FFF0
ENDCHAR
STARTCHAR 194
ENCODING 194
SWIDTH 384 0
DWIDTH 12 0
BBX 12 16 0 -8
BITMAP
FFF0
FFF0
0600
0600
0600
0600
0600
0600
0600
0600
0600
0600
0600
0600
0600
0600
ENDCHAR
STARTCHAR 195
ENCODING 195
SWIDTH 384 0
DWIDTH 12 0
BBX 7 30 5 -8
BITMAP
C0
C0
C0
C0
C0
C0
C0
C0
C0
C0
C0
C0
C0
C0
FE
FE
C0
C0
C0
C0
C0
C0
C0
C0
C0
C0
C0
C0
C0
C0
ENDCHAR
STARTCHAR 196
ENCODING 196
SWIDTH 384 0
DWIDTH 12 0
BBX 12 2 0 6
BITMAP
FFF0
FFF0
ENDCHAR
STARTCHAR 197
ENCODING 197
SWIDTH 384 0
DWIDTH 12 0
BBX 12 30 0 -8
BITMAP
0600
0600
0600
0600
0600
0600
0600
0600
0600
0600
0600
0600
0600
0600
FFF0
FFF0
0600
0600
0600
0600
0600
0600
0600
0600
0600
0600
0600
0600
0600
0600
ENDCHAR
STARTCHAR 198
ENCODING 198
SWIDTH 384 0
DWIDTH 12 0
BBX 7 30 5 -8
BITMAP
C0
C0
C0
C0
C0
C0
C0
C0
C0
C0
C0
C0
FE
FE
C0
C0
FE
FE
C0
C0
C0
C0
C0
C0
C0
C0
C0
C0
C0
C0
ENDCHAR
STARTCHAR 199
ENCODING 199
SWIDTH 384 0
DWIDTH 12 0
BBX 12 30 0 -8
BITMAP
1980
1980
1980
1980
1980
1980
1980
1980
1980
1980
1980
1980
1980
1980
19F0
19F0
1980
1980
1980
1980
1980
1980
1980
1980
1980
1980
1980
1980
1980
1980
ENDCHAR
STARTCHAR 200
ENCODING 200
SWIDTH 384 0
DWIDTH 12 0
BBX 9 18 3 4
BITMAP
CC00
CC00
CC00
CC00
CC00
CC00
CC00
CC00
CC00
CC00
CC00
CC00
CF80
CF80
C000
C000
FF80
FF80
ENDCHAR
STARTCHAR 201
ENCODING 201
SWIDTH 384 0
DWIDTH 12 0
BBX 9 18 3 -8
BITMAP
FF80
FF80
C000
C000
CF80
CF80
CC00
CC00
CC00
CC00
CC00
CC00
CC00
CC00
CC00
CC00
CC00
CC00
ENDCHAR
STARTCHAR 202
ENCODING 202
SWIDTH 384 0
DWIDTH 12 0
BBX 12 18 0 4
BITMAP
1980
1980
1980
1980
1980
1980
1980
1980
1980
1980
1980
1980
F9F0
F9F0
0000
0000
FFF0
FFF0
ENDCHAR
STARTCHAR 203
ENCODING 203
SWIDTH 384 0
DWIDTH 12 0
BBX 12 18 0 -8
BITMAP
FFF0
FFF0
0000
0000
F9F0
F9F0
1980
1980
1980
1980
1980
1980
1980
1980
1980
1980
1980
1980
ENDCHAR
STARTCHAR 204
ENCODING 204
SWIDTH 384 0
DWIDTH 12 0
BBX 12 30 0 -8
BITMAP
1980
1980
1980
1980
1980
1980
1980
1980
1980
1980
1980
1980
19F0
19F0
1800
1800
19F0
19F0
1980
1980
1980
1980
1980
1980
1980
1980
1980
1980
1980
1980
ENDCHAR
STARTCHAR 205
ENCODING 205
SWIDTH 384 0
DWIDTH 12 0
BBX 12 6 0 4
BITMAP
FFF0
FFF0
0000
0000
FFF0
FFF0
ENDCHAR
STARTCHAR 206
ENCODING 206
SWIDTH 384 0
DWIDTH 12 0
BBX 12 30 0 -8
BITMAP
1980
1980
1980
1980
1980
1980
1980
1980
1980
1980
1980
1980
F9F0
F9F0
0000
0000
F9F0
F9F0
1980
1980
1980
1980
1980
1980
1980
1980
1980
1980
1980
1980
ENDCHAR
STARTCHAR 207
ENCODING 207
SWIDTH 384 0
DWIDTH 12 0
BBX 12 18 0 4
BITMAP
0600
0600
0600
0600
0600
0600
0600
0600
0600
0600
0600
0600
FFF0
FFF0
0000
0000
FFF0
FFF0
ENDCHAR
STARTCHAR 208
ENCODING 208
SWIDTH 384 0
DWIDTH 12 0
BBX 12 16 0 6
BITMAP
1980
1980
1980
1980
1980
1980
1980
1980
1980
1980
1980
1980
1980
1980
FFF0
FFF0
ENDCHAR
STARTCHAR 209
ENCODING 209
SWIDTH 384 0
DWIDTH 12 0
BBX 12 18 0 -8
BITMAP
FFF0
FFF0
0000
0000
FFF0
FFF0
0600
0600
0600
0600
0600
0600
0600
0600
0600
0600
0600
0600
ENDCHAR
STARTCHAR 210
ENCODING 210
SWIDTH 384 0
DWIDTH 12 0
BBX 12 16 0 -8
BITMAP
FFF0
FFF0
1980
1980
1980
1980
1980
1980
1980
1980
1980
1980
1980
1980
1980
1980
ENDCHAR
STARTCHAR 211
ENCODING 211
SWIDTH 384 0
DWIDTH 12 0
BBX 9 16 3 6
BITMAP
CC00
CC00
CC00
CC00
CC00
CC00
CC00
CC00
CC00
CC00
CC00
CC00
CC00
CC00
FF80
FF80
ENDCHAR
STARTCHAR 212
ENCODING 212
SWIDTH 384 0
DWIDTH 12 0
BBX 7 18 5 4
BITMAP
C0
C0
C0
C0
C0
C0
C0
C0
C0
C0
C0
C0
FE
FE
C0
C0
FE
FE
ENDCHAR
STARTCHAR 213
ENCODING 213
SWIDTH 384 0
DWIDTH 12 0
BBX 7 18 5 -8
BITMAP
FE
FE
C0
C0
FE
FE
C0
C0
C0
C0
C0
C0
C0
C0
C0
C0
C0
C0
ENDCHAR
STARTCHAR 214
ENCODING 214
SWIDTH 384 0
DWIDTH 12 0
BBX 9 16 3 -8
BITMAP
FF80
FF80
CC00
CC00
CC00
CC00
CC00
CC00
CC00
CC00
CC00
CC00
CC00
CC00
CC00
CC00
ENDCHAR
STARTCHAR 215
ENCODING 215
SWIDTH 384 0
DWIDTH 12 0
BBX 12 30 0 -8
BITMAP
1980
1980
1980
1980
1980
1980
1980
1980
1980
1980
1980
1980
1980
1980
FFF0
FFF0
1980
1980
1980
1980
1980
1980
1980
1980
1980
1980
1980
1980
1980
1980
ENDCHAR
STARTCHAR 216
ENCODING 216
SWIDTH 384 0
DWIDTH 12 0
BBX 12 30 0 -8
BITMAP
0600
0600
0600
0600
0600
0600
0600
0600
0600
0600
0600
0600
FFF0
FFF0
0600
0600
FFF0
FFF0
0600
0600
0600
0600
0600
0600
0600
0600
0600
0600
0600
0600
ENDCHAR
STARTCHAR 217
ENCODING 217
SWIDTH 384 0
DWIDTH 12 0
BBX 7 16 0 6
BITMAP
06
06
06
06
06
06
06
06
06
06
06
06
06
06
FE
FE
ENDCHAR
STARTCHAR 218
ENCODING 218
SWIDTH 384 0
DWIDTH 12 0
BBX 7 16 5 -8
BITMAP
FE
FE
C0
C0
C0
C0
C0
C0
C0
C0
C0
C0
C0
C0
C0
C0
ENDCHAR
STARTCHAR 219
ENCODING 219
SWIDTH 384 0
DWIDTH 12 0
BBX 12 30 0 -8
BITMAP
FFF0
FFF0
FFF0
FFF0
FFF0
FFF0
FFF0
FFF0
FFF0
FFF0
FFF0
FFF0
FFF0
FFF0
FFF0
FFF0
FFF0
FFF0
FFF0
FFF0
FFF0
FFF0
FFF0
FFF0
FFF0
FFF0
FFF0
FFF0
FFF0
FFF0
ENDCHAR
STARTCHAR 220
ENCODING 220
SWIDTH 384 0
DWIDTH 12 0
BBX 12 15 0 -8
BITMAP
FFF0
FFF0
FFF0
FFF0
FFF0
FFF0
FFF0
FFF0
FFF0
FFF0
FFF0
FFF0
FFF0
FFF0
FFF0
ENDCHAR
STARTCHAR 221
ENCODING 221
SWIDTH 384 0
DWIDTH 12 0
BBX 7 30 0 -8
BITMAP
FE
FE
FE
FE
FE
FE
FE
FE
FE
FE
FE
FE
FE
FE
FE
FE
FE
FE
FE
FE
FE
FE
FE
FE
FE
FE
FE
FE
FE
FE
ENDCHAR
STARTCHAR 222
ENCODING 222
SWIDTH 384 0
DWIDTH 12 0
BBX 5 30 7 -8
BITMAP
F8
F8
F8
F8
F8
F8
F8
F8
F8
F8
F8
F8
F8
F8
F8
F8
F8
F8
F8
F8
F8
F8
F8
F8
F8
F8
F8
F8
F8
F8
ENDCHAR
STARTCHAR 223
ENCODING 223
SWIDTH 384 0
DWIDTH 12 0
BBX 12 15 0 7
BITMAP
FFF0
FFF0
FFF0
FFF0
FFF0
FFF0
FFF0
FFF0
FFF0
FFF0
FFF0
FFF0
FFF0
FFF0
FFF0
ENDCHAR
STARTCHAR 224
ENCODING 224
SWIDTH 384 0
DWIDTH 12 0
BBX 11 13 0 0
BITMAP
7DE0
FF80
C700
C600
C600
C600
C600
C600
C600
C600
C700
FF80
7DE0
ENDCHAR
STARTCHAR 225
ENCODING 225
SWIDTH 384 0
DWIDTH 12 0
BBX 10 19 0 0
BITMAP
7E00
FF00
C180
C180
C180
C180
C180
DF80
DF00
C780
C1C0
C0C0
C0C0
C0C0
C0C0
C0C0
C0C0
CFC0
CF80
ENDCHAR
STARTCHAR 226
ENCODING 226
SWIDTH 384 0
DWIDTH 12 0
BBX 10 19 0 0
BITMAP
FFC0
FFC0
C0C0
C0C0
C0C0
C0C0
C0C0
C000
C000
C000
C000
C000
C000
C000
C000
C000
C000
C000
C000
ENDCHAR
STARTCHAR 227
ENCODING 227
SWIDTH 384 0
DWIDTH 12 0
BBX 10 16 0 0
BITMAP
FFC0
FFC0
3300
3300
3300
3300
3300
3300
3300
3300
3300
3300
3300
3300
3300
3300
ENDCHAR
STARTCHAR 228
ENCODING 228
SWIDTH 384 0
DWIDTH 12 0
BBX 10 18 0 -1
BITMAP
FFC0
FFC0
C0C0
C0C0
C000
E000
7000
3800
1C00
3800
7000
E000
C000
C000
C0C0
C0C0
FFC0
FFC0
ENDCHAR
STARTCHAR 229
ENCODING 229
SWIDTH 384 0
DWIDTH 12 0
BBX 11 16 0 0
BITMAP
7FE0
FFE0
C300
C300
C300
C300
C300
C300
C300
C300
C300
C300
C300
C300
FF00
7E00
ENDCHAR
STARTCHAR 230
ENCODING 230
SWIDTH 384 0
DWIDTH 12 0
BBX 10 17 0 -2
BITMAP
30C0
30C0
30C0
30C0
30C0
30C0
30C0
30C0
30C0
30C0
30C0
3FC0
3F80
3000
3000
F000
E000
ENDCHAR
STARTCHAR 231
ENCODING 231
SWIDTH 384 0
DWIDTH 12 0
BBX 11 16 0 0
BITMAP
39E0
7F60
E600
C600
8600
0600
0600
0600
0600
0600
0600
0600
0600
0600
0600
0600
ENDCHAR
STARTCHAR 232
ENCODING 232
SWIDTH 384 0
DWIDTH 12 0
BBX 9 18 1 0
BITMAP
FF80
FF80
1C00
1C00
7F00
C180
C180
C180
C180
C180
C180
C180
C180
7F00
1C00
1C00
FF80
FF80
ENDCHAR
STARTCHAR 233
ENCODING 233
SWIDTH 384 0
DWIDTH 12 0
BBX 9 18 1 0
BITMAP
3E00
7700
E380
C180
C180
C180
C180
C180
FF80
FF80
C180
C180
C180
C180
C180
E380
7700
3E00
ENDCHAR
STARTCHAR 234
ENCODING 234
SWIDTH 384 0
DWIDTH 12 0
BBX 10 19 0 0
BITMAP
1E00
3F00
7380
E1C0
C0C0
C0C0
C0C0
C0C0
E1C0
7380
3300
3300
3300
3300
3300
3300
3300
F3C0
F3C0
ENDCHAR
STARTCHAR 235
ENCODING 235
SWIDTH 384 0
DWIDTH 12 0
BBX 9 19 1 0
BITMAP
1F80
3F80
6000
7800
1C00
0E00
0600
7F00
FF80
C180
C180
C180
C180
C180
C180
C180
C180
FF80
7F00
ENDCHAR
STARTCHAR 236
ENCODING 236
SWIDTH 384 0
DWIDTH 12 0
BBX 10 13 1 2
BITMAP
7F80
FFC0
CCC0
CCC0
CCC0
CCC0
CCC0
CCC0
CCC0
CCC0
CCC0
FFC0
7F80
ENDCHAR
STARTCHAR 237
ENCODING 237
SWIDTH 384 0
DWIDTH 12 0
BBX 12 19 0 -1
BITMAP
0070
00C0
0180
3FC0
7FE0
6660
6660
6660
6660
6660
6660
6660
6660
6660
7FE0
3FC0
1800
3000
E000
ENDCHAR
STARTCHAR 238
ENCODING 238
SWIDTH 384 0
DWIDTH 12 0
BBX 8 20 2 0
BITMAP
1F
3F
60
C0
C0
C0
C0
C0
C0
FF
FF
C0
C0
C0
C0
C0
C0
60
3F
1F
ENDCHAR
STARTCHAR 239
ENCODING 239
SWIDTH 384 0
DWIDTH 12 0
BBX 10 18 0 0
BITMAP
7F80
FFC0
C0C0
C0C0
C0C0
C0C0
C0C0
C0C0
C0C0
C0C0
C0C0
C0C0
C0C0
C0C0
C0C0
C0C0
C0C0
C0C0
ENDCHAR
STARTCHAR 240
ENCODING 240
SWIDTH 384 0
DWIDTH 12 0
BBX 11 10 0 3
BITMAP
FFE0
FFE0
0000
0000
FFE0
FFE0
0000
0000
FFE0
FFE0
ENDCHAR
STARTCHAR 241
ENCODING 241
SWIDTH 384 0
DWIDTH 12 0
BBX 10 14 1 0
BITMAP
0C00
0C00
0C00
7F80
7F80
0C00
0C00
0C00
0000
0000
0000
0000
FFC0
FFC0
ENDCHAR
STARTCHAR 242
ENCODING 242
SWIDTH 384 0
DWIDTH 12 0
BBX 7 17 2 0
BITMAP
C0
60
30
18
0C
06
06
0C
18
30
60
C0
00
00
00
FE
FE
ENDCHAR
STARTCHAR 243
ENCODING 243
SWIDTH 384 0
DWIDTH 12 0
BBX 7 17 2 0
BITMAP
06
0C
18
30
60
C0
C0
60
30
18
0C
06
00
00
00
FE
FE
ENDCHAR
STARTCHAR 244
ENCODING 244
SWIDTH 384 0
DWIDTH 12 0
BBX 7 29 5 -8
BITMAP
7C
FE
C6
C6
C6
C6
C6
C0
C0
C0
C0
C0
C0
C0
C0
C0
C0
C0
C0
C0
C0
C0
C0
C0
C0
C0
C0
C0
C0
ENDCHAR
STARTCHAR 245
ENCODING 245
SWIDTH 384 0
DWIDTH 12 0
BBX 7 28 0 -6
BITMAP
06
06
06
06
06
06
06
06
06
06
06
06
06
06
06
06
06
06
06
06
06
C6
C6
C6
C6
C6
FE
7C
ENDCHAR
STARTCHAR 246
ENCODING 246
SWIDTH 384 0
DWIDTH 12 0
BBX 8 12 1 4
BITMAP
18
18
18
00
00
FF
FF
00
00
18
18
18
ENDCHAR
STARTCHAR 247
ENCODING 247
SWIDTH 384 0
DWIDTH 12 0
BBX 11 9 0 5
BITMAP
7820
FC60
CFE0
87C0
0000
7820
FC60
CFE0
87C0
ENDCHAR
STARTCHAR 248
ENCODING 248
SWIDTH 384 0
DWIDTH 12 0
BBX 8 8 2 12
BITMAP
7E
FF
C3
C3
C3
C3
FF
7E
ENDCHAR
STARTCHAR 249
ENCODING 249
SWIDTH 384 0
DWIDTH 12 0
BBX 3 4 5 6
BITMAP
E0
E0
E0
E0
ENDCHAR
STARTCHAR 250
ENCODING 250
SWIDTH 384 0
DWIDTH 12 0
BBX 2 3 5 6
BITMAP
C0
C0
C0
ENDCHAR
STARTCHAR 251
ENCODING 251
SWIDTH 384 0
DWIDTH 12 0
BBX 12 21 0 0
BITMAP
01F0
01F0
0180
0180
0180
0180
0180
0180
0180
0180
F980
F980
1980
1980
1980
1980
1980
1980
1D80
0F80
0780
ENDCHAR
STARTCHAR 252
ENCODING 252
SWIDTH 384 0
DWIDTH 12 0
BBX 9 12 0 8
BITMAP
6F00
FF80
9980
1980
1980
1980
1980
1980
1980
1980
1980
1980
ENDCHAR
STARTCHAR 253
ENCODING 253
SWIDTH 384 0
DWIDTH 12 0
BBX 7 11 0 9
BITMAP
7C
FE
C6
C6
0C
18
30
66
C6
FE
FE
ENDCHAR
STARTCHAR 254
ENCODING 254
SWIDTH 384 0
DWIDTH 12 0
BBX 8 14 2 1
BITMAP
FF
FF
FF
FF
FF
FF
FF
FF
FF
FF
FF
FF
FF
FF
ENDCHAR
STARTCHAR 255
ENCODING 255
SWIDTH 384 0
DWIDTH 12 0
BBX 0 0 0 0
BITMAP
ENDCHAR
ENDFONT
